<?xml version="1.0" encoding="UTF-8" standalone="no"?><svg xmlns="http://www.w3.org/2000/svg" xmlns:xlink="http://www.w3.org/1999/xlink" contentScriptType="application/ecmascript" contentStyleType="text/css" height="819px" preserveAspectRatio="none" style="width:2033px;height:819px;background:#FFFFFF;" version="1.1" viewBox="0 0 2033 819" width="2033px" zoomAndPan="magnify"><defs/><g><!--MD5=[2916714cae8f0462c1096d4fd55ce4c3]
class Season--><rect codeLine="3" fill="#FFFFFF" height="44" id="Season" style="stroke:#000000;stroke-width:1.5;" width="78" x="500" y="768"/><ellipse cx="513" cy="782" fill="#FFFFFF" rx="9" ry="9" style="stroke:#000000;stroke-width:1.0;"/><path d="M516.6143,788.5 L508.8945,788.5 L508.8945,776.1069 L516.6143,776.1069 L516.6143,778.2651 L511.3433,778.2651 L511.3433,780.938 L516.1162,780.938 L516.1162,783.0962 L511.3433,783.0962 L511.3433,786.3418 L516.6143,786.3418 Z " fill="#000000"/><text fill="#000000" font-family="Verdana" font-size="14" lengthAdjust="spacing" textLength="50" x="525" y="787.5679">Season</text><line style="stroke:#000000;stroke-width:1.5;" x1="501" x2="577" y1="796" y2="796"/><line style="stroke:#000000;stroke-width:1.5;" x1="501" x2="577" y1="804" y2="804"/><!--MD5=[db024eadf81e667c611a5b21a210a7ac]
class DayType--><rect codeLine="5" fill="#FFFFFF" height="44" id="DayType" style="stroke:#000000;stroke-width:1.5;" width="89" x="613.5" y="768"/><ellipse cx="626.5" cy="782" fill="#FFFFFF" rx="9" ry="9" style="stroke:#000000;stroke-width:1.0;"/><path d="M630.1143,788.5 L622.3945,788.5 L622.3945,776.1069 L630.1143,776.1069 L630.1143,778.2651 L624.8433,778.2651 L624.8433,780.938 L629.6162,780.938 L629.6162,783.0962 L624.8433,783.0962 L624.8433,786.3418 L630.1143,786.3418 Z " fill="#000000"/><text fill="#000000" font-family="Verdana" font-size="14" lengthAdjust="spacing" textLength="61" x="638.5" y="787.5679">DayType</text><line style="stroke:#000000;stroke-width:1.5;" x1="614.5" x2="701.5" y1="796" y2="796"/><line style="stroke:#000000;stroke-width:1.5;" x1="614.5" x2="701.5" y1="804" y2="804"/><!--MD5=[9b1ac4b91e71ecec5b64951ff48d2f19]
class ApplianceType--><rect codeLine="7" fill="#FFFFFF" height="44" id="ApplianceType" style="stroke:#000000;stroke-width:1.5;" width="130" x="873" y="441"/><ellipse cx="886" cy="455" fill="#FFFFFF" rx="9" ry="9" style="stroke:#000000;stroke-width:1.0;"/><path d="M889.6143,461.5 L881.8945,461.5 L881.8945,449.1069 L889.6143,449.1069 L889.6143,451.2651 L884.3433,451.2651 L884.3433,453.938 L889.1162,453.938 L889.1162,456.0962 L884.3433,456.0962 L884.3433,459.3418 L889.6143,459.3418 Z " fill="#000000"/><text fill="#000000" font-family="Verdana" font-size="14" lengthAdjust="spacing" textLength="102" x="898" y="460.5679">ApplianceType</text><line style="stroke:#000000;stroke-width:1.5;" x1="874" x2="1002" y1="469" y2="469"/><line style="stroke:#000000;stroke-width:1.5;" x1="874" x2="1002" y1="477" y2="477"/><!--MD5=[94208399ec881e1911674b2f46bd0f26]
class SwitchOnProbabilityKey--><rect codeLine="9" fill="#FFFFFF" height="112.0586" id="SwitchOnProbabilityKey" style="stroke:#000000;stroke-width:1.5;" width="594" x="301" y="596"/><ellipse cx="510.75" cy="610" fill="#FFFFFF" rx="9" ry="9" style="stroke:#000000;stroke-width:1.0;"/><path d="M513.2231,616.1431 Q512.6421,616.4419 512.0029,616.5913 Q511.3638,616.7407 510.6582,616.7407 Q508.1514,616.7407 506.8315,615.0889 Q505.5117,613.437 505.5117,610.3159 Q505.5117,607.1865 506.8315,605.5347 Q508.1514,603.8828 510.6582,603.8828 Q511.3638,603.8828 512.0112,604.0322 Q512.6587,604.1816 513.2231,604.4805 L513.2231,607.2031 Q512.5923,606.6221 511.9988,606.3523 Q511.4053,606.0825 510.7744,606.0825 Q509.4297,606.0825 508.7449,607.1492 Q508.0601,608.2158 508.0601,610.3159 Q508.0601,612.4077 508.7449,613.4744 Q509.4297,614.541 510.7744,614.541 Q511.4053,614.541 511.9988,614.2712 Q512.5923,614.0015 513.2231,613.4204 Z " fill="#000000"/><text fill="#000000" font-family="Verdana" font-size="14" lengthAdjust="spacing" textLength="167" x="528.25" y="615.5679">SwitchOnProbabilityKey</text><line style="stroke:#000000;stroke-width:1.5;" x1="302" x2="894" y1="624" y2="624"/><text fill="#000000" font-family="Verdana" font-size="14" lengthAdjust="spacing" textLength="108" x="307" y="642.0752">Season: season</text><text fill="#000000" font-family="Verdana" font-size="14" lengthAdjust="spacing" textLength="137" x="307" y="659.0898">DayType: day_type</text><text fill="#000000" font-family="Verdana" font-size="14" lengthAdjust="spacing" textLength="179" x="307" y="676.1045">int: quarter_hour_of_day</text><line style="stroke:#000000;stroke-width:1.5;" x1="302" x2="894" y1="683.0439" y2="683.0439"/><ellipse cx="312" cy="694.0439" fill="#FFFFFF" rx="3" ry="3" style="stroke:#000000;stroke-width:1.0;"/><text fill="#000000" font-family="Verdana" font-size="14" lengthAdjust="spacing" textLength="570" x="319" y="701.1191">extract_from_datetime(datetime: instance_of_interest): SwitchOnProbabilityKey</text><!--MD5=[982f31ac7a398be22954e608b3ebc83e]
class SwitchOnProbabilities--><rect codeLine="19" fill="#FFFFFF" height="95.0439" id="SwitchOnProbabilities" style="stroke:#000000;stroke-width:1.5;" width="479" x="358.5" y="415.5"/><ellipse cx="518.25" cy="429.5" fill="#FFFFFF" rx="9" ry="9" style="stroke:#000000;stroke-width:1.0;"/><path d="M520.7231,435.6431 Q520.1421,435.9419 519.5029,436.0913 Q518.8638,436.2407 518.1582,436.2407 Q515.6514,436.2407 514.3315,434.5889 Q513.0117,432.937 513.0117,429.8159 Q513.0117,426.6865 514.3315,425.0347 Q515.6514,423.3828 518.1582,423.3828 Q518.8638,423.3828 519.5112,423.5322 Q520.1587,423.6816 520.7231,423.9805 L520.7231,426.7031 Q520.0923,426.1221 519.4988,425.8523 Q518.9053,425.5825 518.2744,425.5825 Q516.9297,425.5825 516.2449,426.6492 Q515.5601,427.7158 515.5601,429.8159 Q515.5601,431.9077 516.2449,432.9744 Q516.9297,434.041 518.2744,434.041 Q518.9053,434.041 519.4988,433.7712 Q520.0923,433.5015 520.7231,432.9204 Z " fill="#000000"/><text fill="#000000" font-family="Verdana" font-size="14" lengthAdjust="spacing" textLength="152" x="535.75" y="435.0679">SwitchOnProbabilities</text><line style="stroke:#000000;stroke-width:1.5;" x1="359.5" x2="836.5" y1="443.5" y2="443.5"/><text fill="#000000" font-family="Verdana" font-size="14" lengthAdjust="spacing" textLength="467" x="364.5" y="461.5752">dict[SwitchOnProbabilityKey, dict[int, float]]: seasonal_probability</text><line style="stroke:#000000;stroke-width:1.5;" x1="359.5" x2="836.5" y1="468.5146" y2="468.5146"/><ellipse cx="369.5" cy="479.5146" fill="#FFFFFF" rx="3" ry="3" style="stroke:#000000;stroke-width:1.0;"/><text fill="#000000" font-family="Verdana" font-size="14" lengthAdjust="spacing" textLength="234" x="376.5" y="486.5898">__init__(): SwitchOnProbabilities</text><ellipse cx="369.5" cy="496.5293" fill="#FFFFFF" rx="3" ry="3" style="stroke:#000000;stroke-width:1.0;"/><text fill="#000000" font-family="Verdana" font-size="14" lengthAdjust="spacing" textLength="273" x="376.5" y="503.6045">get(SwitchOnProbabilityKey key): float</text><path d="M11,418.5 L11,507.4966 A0,0 0 0 0 11,507.4966 L323,507.4966 A0,0 0 0 0 323,507.4966 L323,467 L358.31,463 L323,459 L323,428.5 L313,418.5 L11,418.5 A0,0 0 0 0 11,418.5 " fill="#FFFFFF" style="stroke:#000000;stroke-width:1.0;"/><path d="M313,418.5 L313,428.5 L323,428.5 L313,418.5 " fill="#FFFFFF" style="stroke:#000000;stroke-width:1.0;"/><text fill="#000000" font-family="Verdana" font-size="13" lengthAdjust="spacing" textLength="145" x="17" y="436.5698">"Interface" definition:</text><text fill="#000000" font-family="Verdana" font-size="13" lengthAdjust="spacing" textLength="259" x="17" y="452.3691">We receive a "matrix" of probabilities,</text><text fill="#000000" font-family="Verdana" font-size="13" lengthAdjust="spacing" textLength="249" x="17" y="468.1685">which maps from quarter hour of the</text><text fill="#000000" font-family="Verdana" font-size="13" lengthAdjust="spacing" textLength="237" x="17" y="483.9678">year to actual switch on probability</text><text fill="#000000" font-family="Verdana" font-size="13" lengthAdjust="spacing" textLength="291" x="17" y="499.7671">(accounting for so called usage probability)</text><!--MD5=[5b58cc52d91b3961365632140c60fe14]
class Appliance--><rect codeLine="29" fill="#FFFFFF" height="129.0732" id="Appliance" style="stroke:#000000;stroke-width:1.5;" width="506" x="841" y="201"/><ellipse cx="1056.25" cy="215" fill="#FFFFFF" rx="9" ry="9" style="stroke:#000000;stroke-width:1.0;"/><path d="M1056.1133,210.3481 L1054.9595,215.4199 L1057.2754,215.4199 Z M1054.6191,208.1069 L1057.6157,208.1069 L1060.9609,220.5 L1058.5122,220.5 L1057.7485,217.437 L1054.4697,217.437 L1053.7227,220.5 L1051.2739,220.5 Z " fill="#000000"/><text fill="#000000" font-family="Verdana" font-size="14" font-style="italic" lengthAdjust="spacing" textLength="68" x="1073.75" y="220.5679">Appliance</text><line style="stroke:#000000;stroke-width:1.5;" x1="842" x2="1346" y1="229" y2="229"/><ellipse cx="852" cy="240" fill="none" rx="3" ry="3" style="stroke:#000000;stroke-width:1.0;"/><text fill="#000000" font-family="Verdana" font-size="14" lengthAdjust="spacing" textLength="144" x="859" y="247.0752">ApplianceType: type</text><rect fill="none" height="6" style="stroke:#000000;stroke-width:1.0;" width="6" x="849" y="254.0146"/><text fill="#000000" font-family="Verdana" font-size="14" lengthAdjust="spacing" textLength="317" x="859" y="264.0898">SwitchOnProbabilities: switch_on_probability</text><line style="stroke:#000000;stroke-width:1.5;" x1="842" x2="1346" y1="271.0293" y2="271.0293"/><ellipse cx="852" cy="282.0293" fill="#FFFFFF" rx="3" ry="3" style="stroke:#000000;stroke-width:1.0;"/><text fill="#000000" font-family="Verdana" font-size="14" lengthAdjust="spacing" textLength="65" x="859" y="289.1045">__init__(</text><text fill="#000000" font-family="Verdana" font-size="14" lengthAdjust="spacing" textLength="442" x="899" y="306.1191">SwitchOnProbabilities: type_switch_on_probability): Appliance</text><ellipse cx="852" cy="316.0586" fill="#FFFFFF" rx="3" ry="3" style="stroke:#000000;stroke-width:1.0;"/><text fill="#000000" font-family="Verdana" font-size="14" lengthAdjust="spacing" textLength="457" x="859" y="323.1338">get_switch_on_probability(datetime: instance_of_interest): float</text><path d="M1382,237 L1382,261.5 L1347.16,265.5 L1382,269.5 L1382,294.3979 A0,0 0 0 0 1382,294.3979 L1588,294.3979 A0,0 0 0 0 1588,294.3979 L1588,247 L1578,237 L1382,237 A0,0 0 0 0 1382,237 " fill="#FFFFFF" style="stroke:#000000;stroke-width:1.0;"/><path d="M1578,237 L1578,247 L1588,247 L1578,237 " fill="#FFFFFF" style="stroke:#000000;stroke-width:1.0;"/><text fill="#000000" font-family="Verdana" font-size="13" lengthAdjust="spacing" textLength="137" x="1388" y="255.0698">Implicit assumption:</text><text fill="#000000" font-family="Verdana" font-size="13" lengthAdjust="spacing" textLength="175" x="1388" y="270.8691">Generation _only_ for one</text><text fill="#000000" font-family="Verdana" font-size="13" lengthAdjust="spacing" textLength="185" x="1388" y="286.6685">whole year to be calculated</text><!--MD5=[62d2dc1d4717944b59b15953276a8048]
class ApplianceLoadProfile--><rect codeLine="40" fill="#FFFFFF" height="146.0879" id="ApplianceLoadProfile" style="stroke:#000000;stroke-width:1.5;" width="426" x="1038" y="390"/><ellipse cx="1175.25" cy="404" fill="#FFFFFF" rx="9" ry="9" style="stroke:#000000;stroke-width:1.0;"/><path d="M1177.7231,410.1431 Q1177.1421,410.4419 1176.5029,410.5913 Q1175.8638,410.7407 1175.1582,410.7407 Q1172.6514,410.7407 1171.3315,409.0889 Q1170.0117,407.437 1170.0117,404.3159 Q1170.0117,401.1865 1171.3315,399.5347 Q1172.6514,397.8828 1175.1582,397.8828 Q1175.8638,397.8828 1176.5112,398.0322 Q1177.1587,398.1816 1177.7231,398.4805 L1177.7231,401.2031 Q1177.0923,400.6221 1176.4988,400.3523 Q1175.9053,400.0825 1175.2744,400.0825 Q1173.9297,400.0825 1173.2449,401.1492 Q1172.5601,402.2158 1172.5601,404.3159 Q1172.5601,406.4077 1173.2449,407.4744 Q1173.9297,408.541 1175.2744,408.541 Q1175.9053,408.541 1176.4988,408.2712 Q1177.0923,408.0015 1177.7231,407.4204 Z " fill="#000000"/><text fill="#000000" font-family="Verdana" font-size="14" lengthAdjust="spacing" textLength="144" x="1192.75" y="409.5679">ApplianceLoadProfile</text><line style="stroke:#000000;stroke-width:1.5;" x1="1039" x2="1463" y1="418" y2="418"/><text fill="#000000" font-family="Verdana" font-size="14" lengthAdjust="spacing" textLength="170" x="1044" y="436.0752">TimeSeries: time_series</text><line style="stroke:#000000;stroke-width:1.5;" x1="1039" x2="1463" y1="443.0146" y2="443.0146"/><ellipse cx="1049" cy="454.0146" fill="#FFFFFF" rx="3" ry="3" style="stroke:#000000;stroke-width:1.0;"/><text fill="#000000" font-family="Verdana" font-size="14" lengthAdjust="spacing" textLength="65" x="1056" y="461.0898">__init__(</text><text fill="#000000" font-family="Verdana" font-size="14" lengthAdjust="spacing" textLength="172" x="1096" y="478.1045">float: usage_probability,</text><text fill="#000000" font-family="Verdana" font-size="14" lengthAdjust="spacing" textLength="362" x="1096" y="495.1191">SwitchOnProbabilities: type_switch_on_probability,</text><text fill="#000000" font-family="Verdana" font-size="14" lengthAdjust="spacing" textLength="170" x="1096" y="512.1338">TimeSeries: time_series</text><text fill="#000000" font-family="Verdana" font-size="14" lengthAdjust="spacing" textLength="161" x="1096" y="529.1484">): ApplianceWithProfile</text><!--MD5=[1607c3002aad8e2462dfde7f812aa8df]
class TimeSeries--><rect codeLine="53" fill="#FFFFFF" height="61.0146" id="TimeSeries" style="stroke:#000000;stroke-width:1.5;" width="165" x="1623.5" y="235"/><ellipse cx="1663.25" cy="249" fill="#FFFFFF" rx="9" ry="9" style="stroke:#000000;stroke-width:1.0;"/><path d="M1665.7231,255.1431 Q1665.1421,255.4419 1664.5029,255.5913 Q1663.8638,255.7407 1663.1582,255.7407 Q1660.6514,255.7407 1659.3315,254.0889 Q1658.0117,252.437 1658.0117,249.3159 Q1658.0117,246.1865 1659.3315,244.5347 Q1660.6514,242.8828 1663.1582,242.8828 Q1663.8638,242.8828 1664.5112,243.0322 Q1665.1587,243.1816 1665.7231,243.4805 L1665.7231,246.2031 Q1665.0923,245.6221 1664.4988,245.3523 Q1663.9053,245.0825 1663.2744,245.0825 Q1661.9297,245.0825 1661.2449,246.1492 Q1660.5601,247.2158 1660.5601,249.3159 Q1660.5601,251.4077 1661.2449,252.4744 Q1661.9297,253.541 1663.2744,253.541 Q1663.9053,253.541 1664.4988,253.2712 Q1665.0923,253.0015 1665.7231,252.4204 Z " fill="#000000"/><text fill="#000000" font-family="Verdana" font-size="14" lengthAdjust="spacing" textLength="78" x="1680.75" y="254.5679">TimeSeries</text><line style="stroke:#000000;stroke-width:1.5;" x1="1624.5" x2="1787.5" y1="263" y2="263"/><text fill="#000000" font-family="Verdana" font-size="14" lengthAdjust="spacing" textLength="153" x="1629.5" y="281.0752">dict[int, float]: values</text><line style="stroke:#000000;stroke-width:1.5;" x1="1624.5" x2="1787.5" y1="288.0146" y2="288.0146"/><path d="M1824,237 L1824,261.5 L1788.55,265.5 L1824,269.5 L1824,294.3979 A0,0 0 0 0 1824,294.3979 L2026,294.3979 A0,0 0 0 0 2026,294.3979 L2026,247 L2016,237 L1824,237 A0,0 0 0 0 1824,237 " fill="#FFFFFF" style="stroke:#000000;stroke-width:1.0;"/><path d="M2016,237 L2016,247 L2026,247 L2016,237 " fill="#FFFFFF" style="stroke:#000000;stroke-width:1.0;"/><text fill="#000000" font-family="Verdana" font-size="13" lengthAdjust="spacing" textLength="181" x="1830" y="255.0698">Mapping from quarter hour</text><text fill="#000000" font-family="Verdana" font-size="13" lengthAdjust="spacing" textLength="172" x="1830" y="270.8691">from start of operation to</text><text fill="#000000" font-family="Verdana" font-size="13" lengthAdjust="spacing" textLength="113" x="1830" y="286.6685">consumed power</text><!--MD5=[1e3ca9719c92321bc345f9980f5f6558]
class ApplianceConstantPower--><rect codeLine="47" fill="#FFFFFF" height="146.0879" id="ApplianceConstantPower" style="stroke:#000000;stroke-width:1.5;" width="426" x="1499" y="390"/><ellipse cx="1622.25" cy="404" fill="#FFFFFF" rx="9" ry="9" style="stroke:#000000;stroke-width:1.0;"/><path d="M1624.7231,410.1431 Q1624.1421,410.4419 1623.5029,410.5913 Q1622.8638,410.7407 1622.1582,410.7407 Q1619.6514,410.7407 1618.3315,409.0889 Q1617.0117,407.437 1617.0117,404.3159 Q1617.0117,401.1865 1618.3315,399.5347 Q1619.6514,397.8828 1622.1582,397.8828 Q1622.8638,397.8828 1623.5112,398.0322 Q1624.1587,398.1816 1624.7231,398.4805 L1624.7231,401.2031 Q1624.0923,400.6221 1623.4988,400.3523 Q1622.9053,400.0825 1622.2744,400.0825 Q1620.9297,400.0825 1620.2449,401.1492 Q1619.5601,402.2158 1619.5601,404.3159 Q1619.5601,406.4077 1620.2449,407.4744 Q1620.9297,408.541 1622.2744,408.541 Q1622.9053,408.541 1623.4988,408.2712 Q1624.0923,408.0015 1624.7231,407.4204 Z " fill="#000000"/><text fill="#000000" font-family="Verdana" font-size="14" lengthAdjust="spacing" textLength="172" x="1639.75" y="409.5679">ApplianceConstantPower</text><line style="stroke:#000000;stroke-width:1.5;" x1="1500" x2="1924" y1="418" y2="418"/><text fill="#000000" font-family="Verdana" font-size="14" lengthAdjust="spacing" textLength="97" x="1505" y="436.0752">float: p_rated</text><line style="stroke:#000000;stroke-width:1.5;" x1="1500" x2="1924" y1="443.0146" y2="443.0146"/><ellipse cx="1510" cy="454.0146" fill="#FFFFFF" rx="3" ry="3" style="stroke:#000000;stroke-width:1.0;"/><text fill="#000000" font-family="Verdana" font-size="14" lengthAdjust="spacing" textLength="65" x="1517" y="461.0898">__init__(</text><text fill="#000000" font-family="Verdana" font-size="14" lengthAdjust="spacing" textLength="172" x="1557" y="478.1045">float: usage_probability,</text><text fill="#000000" font-family="Verdana" font-size="14" lengthAdjust="spacing" textLength="362" x="1557" y="495.1191">SwitchOnProbabilities: type_switch_on_probability,</text><text fill="#000000" font-family="Verdana" font-size="14" lengthAdjust="spacing" textLength="97" x="1557" y="512.1338">float: p_rated</text><text fill="#000000" font-family="Verdana" font-size="14" lengthAdjust="spacing" textLength="161" x="1557" y="529.1484">): ApplianceWithProfile</text><!--MD5=[a04cbf41898dbf764474b44f344ef5de]
class ApplianceWithProfile--><rect fill="#FFFFFF" height="44" id="ApplianceWithProfile" style="stroke:#000000;stroke-width:1.5;" width="172" x="1620" y="54.5"/><ellipse cx="1633" cy="68.5" fill="#FFFFFF" rx="9" ry="9" style="stroke:#000000;stroke-width:1.0;"/><path d="M1635.4731,74.6431 Q1634.8921,74.9419 1634.2529,75.0913 Q1633.6138,75.2407 1632.9082,75.2407 Q1630.4014,75.2407 1629.0815,73.5889 Q1627.7617,71.937 1627.7617,68.8159 Q1627.7617,65.6865 1629.0815,64.0347 Q1630.4014,62.3828 1632.9082,62.3828 Q1633.6138,62.3828 1634.2612,62.5322 Q1634.9087,62.6816 1635.4731,62.9805 L1635.4731,65.7031 Q1634.8423,65.1221 1634.2488,64.8523 Q1633.6553,64.5825 1633.0244,64.5825 Q1631.6797,64.5825 1630.9949,65.6492 Q1630.3101,66.7158 1630.3101,68.8159 Q1630.3101,70.9077 1630.9949,71.9744 Q1631.6797,73.041 1633.0244,73.041 Q1633.6553,73.041 1634.2488,72.7712 Q1634.8423,72.5015 1635.4731,71.9204 Z " fill="#000000"/><text fill="#000000" font-family="Verdana" font-size="14" lengthAdjust="spacing" textLength="144" x="1645" y="74.0679">ApplianceWithProfile</text><line style="stroke:#000000;stroke-width:1.5;" x1="1621" x2="1791" y1="82.5" y2="82.5"/><line style="stroke:#000000;stroke-width:1.5;" x1="1621" x2="1791" y1="90.5" y2="90.5"/><!--MD5=[64d576831e27e156c79ff84bef690284]
class Household--><rect codeLine="58" fill="#FFFFFF" height="129.0732" id="Household" style="stroke:#000000;stroke-width:1.5;" width="324" x="932" y="12"/><ellipse cx="1053.75" cy="26" fill="#FFFFFF" rx="9" ry="9" style="stroke:#000000;stroke-width:1.0;"/><path d="M1056.2231,32.1431 Q1055.6421,32.4419 1055.0029,32.5913 Q1054.3638,32.7407 1053.6582,32.7407 Q1051.1514,32.7407 1049.8315,31.0889 Q1048.5117,29.437 1048.5117,26.3159 Q1048.5117,23.1865 1049.8315,21.5347 Q1051.1514,19.8828 1053.6582,19.8828 Q1054.3638,19.8828 1055.0112,20.0322 Q1055.6587,20.1816 1056.2231,20.4805 L1056.2231,23.2031 Q1055.5923,22.6221 1054.9988,22.3523 Q1054.4053,22.0825 1053.7744,22.0825 Q1052.4297,22.0825 1051.7449,23.1492 Q1051.0601,24.2158 1051.0601,26.3159 Q1051.0601,28.4077 1051.7449,29.4744 Q1052.4297,30.541 1053.7744,30.541 Q1054.4053,30.541 1054.9988,30.2712 Q1055.5923,30.0015 1056.2231,29.4204 Z " fill="#000000"/><text fill="#000000" font-family="Verdana" font-size="14" lengthAdjust="spacing" textLength="73" x="1071.25" y="31.5679">Household</text><line style="stroke:#000000;stroke-width:1.5;" x1="933" x2="1255" y1="40" y2="40"/><text fill="#000000" font-family="Verdana" font-size="14" lengthAdjust="spacing" textLength="233" x="938" y="58.0752">dict[Appliance, float]: Appliances</text><line style="stroke:#000000;stroke-width:1.5;" x1="933" x2="1255" y1="65.0146" y2="65.0146"/><ellipse cx="943" cy="76.0146" fill="#FFFFFF" rx="3" ry="3" style="stroke:#000000;stroke-width:1.0;"/><text fill="#000000" font-family="Verdana" font-size="14" lengthAdjust="spacing" textLength="71" x="950" y="83.0898">__init__()</text><ellipse cx="943" cy="93.0293" fill="#FFFFFF" rx="3" ry="3" style="stroke:#000000;stroke-width:1.0;"/><text fill="#000000" font-family="Verdana" font-size="14" lengthAdjust="spacing" textLength="228" x="950" y="100.1045">__init__(int: no_of_inhabitants)</text><ellipse cx="943" cy="110.0439" fill="#FFFFFF" rx="3" ry="3" style="stroke:#000000;stroke-width:1.0;"/><text fill="#000000" font-family="Verdana" font-size="14" lengthAdjust="spacing" textLength="163" x="950" y="117.1191">__init__(float: income)</text><ellipse cx="943" cy="127.0586" fill="#FFFFFF" rx="3" ry="3" style="stroke:#000000;stroke-width:1.0;"/><text fill="#000000" font-family="Verdana" font-size="14" lengthAdjust="spacing" textLength="300" x="950" y="134.1338">__init__(HouseholdType: household_type)</text><path d="M1291.5,55.5 L1291.5,72.5 L1256.11,76.5 L1291.5,80.5 L1291.5,97.0986 A0,0 0 0 0 1291.5,97.0986 L1526.5,97.0986 A0,0 0 0 0 1526.5,97.0986 L1526.5,65.5 L1516.5,55.5 L1291.5,55.5 A0,0 0 0 0 1291.5,55.5 " fill="#FFFFFF" style="stroke:#000000;stroke-width:1.0;"/><path d="M1516.5,55.5 L1516.5,65.5 L1526.5,65.5 L1516.5,55.5 " fill="#FFFFFF" style="stroke:#000000;stroke-width:1.0;"/><text fill="#000000" font-family="Verdana" font-size="13" lengthAdjust="spacing" textLength="157" x="1297.5" y="73.5698">Init without parameter:</text><text fill="#000000" font-family="Verdana" font-size="13" lengthAdjust="spacing" textLength="214" x="1297.5" y="89.3691">According to average household</text><!--MD5=[2e0e6fc3d347c46fb27ec22ab8adb191]
class HouseholdType--><rect codeLine="69" fill="#FFFFFF" height="44" id="HouseholdType" style="stroke:#000000;stroke-width:1.5;" width="135" x="1827.5" y="54.5"/><ellipse cx="1840.5" cy="68.5" fill="#FFFFFF" rx="9" ry="9" style="stroke:#000000;stroke-width:1.0;"/><path d="M1844.1143,75 L1836.3945,75 L1836.3945,62.6069 L1844.1143,62.6069 L1844.1143,64.7651 L1838.8433,64.7651 L1838.8433,67.438 L1843.6162,67.438 L1843.6162,69.5962 L1838.8433,69.5962 L1838.8433,72.8418 L1844.1143,72.8418 Z " fill="#000000"/><text fill="#000000" font-family="Verdana" font-size="14" lengthAdjust="spacing" textLength="107" x="1852.5" y="74.0679">HouseholdType</text><line style="stroke:#000000;stroke-width:1.5;" x1="1828.5" x2="1961.5" y1="82.5" y2="82.5"/><line style="stroke:#000000;stroke-width:1.5;" x1="1828.5" x2="1961.5" y1="90.5" y2="90.5"/><!--MD5=[7cf25f2e406c7c7d8b9d7710a4e19c26]
reverse link SwitchOnProbabilityKey to DayType--><path codeLine="16" d="M627.86,720.68 C635.39,737.75 642.94,754.85 648.59,767.68 " fill="none" id="SwitchOnProbabilityKey-backto-DayType" style="stroke:#000000;stroke-width:1.0;"/><polygon fill="#000000" points="622.4,708.32,621.1689,715.4252,627.2541,719.2944,628.4852,712.1892,622.4,708.32" style="stroke:#000000;stroke-width:1.0;"/><!--MD5=[87ac7d3560ed776d9418ecc8f71cf8a0]
reverse link SwitchOnProbabilityKey to Season--><path codeLine="17" d="M568.64,720.68 C561.23,737.75 553.81,754.85 548.25,767.68 " fill="none" id="SwitchOnProbabilityKey-backto-Season" style="stroke:#000000;stroke-width:1.0;"/><polygon fill="#000000" points="574,708.32,567.9435,712.2339,569.2269,719.3299,575.2834,715.416,574,708.32" style="stroke:#000000;stroke-width:1.0;"/><!--MD5=[048c17bb8ddbc2ec1d28a7a9977383e8]
reverse link SwitchOnProbabilities to SwitchOnProbabilityKey--><path codeLine="27" d="M598,523.9 C598,547.01 598,573.29 598,595.93 " fill="none" id="SwitchOnProbabilities-backto-SwitchOnProbabilityKey" style="stroke:#000000;stroke-width:1.0;"/><polygon fill="#000000" points="598,510.71,594,516.71,598,522.71,602,516.71,598,510.71" style="stroke:#000000;stroke-width:1.0;"/><!--MD5=[a8a527c65958ac30f628e00ded7a0a46]
reverse link Appliance to SwitchOnProbabilities--><path codeLine="37" d="M920.11,335.04 C852.6,361.65 777.02,391.44 716.04,415.47 " fill="none" id="Appliance-backto-SwitchOnProbabilities" style="stroke:#000000;stroke-width:1.0;"/><polygon fill="#000000" points="932.62,330.11,925.5725,328.5827,921.4521,334.5007,928.4996,336.028,932.62,330.11" style="stroke:#000000;stroke-width:1.0;"/><!--MD5=[95314fbe3255dd73c1ef0116f4f92869]
reverse link Appliance to ApplianceType--><path codeLine="38" d="M1034.8,340.69 C1006.26,376.46 974.14,416.7 955.02,440.67 " fill="none" id="Appliance-backto-ApplianceType" style="stroke:#000000;stroke-width:1.0;"/><polygon fill="#000000" points="1043.14,330.24,1036.2717,332.4371,1035.6582,339.622,1042.5264,337.4249,1043.14,330.24" style="stroke:#000000;stroke-width:1.0;"/><!--MD5=[d54d41b9323b78ad8d864e8b0b0a4b2d]
reverse link Appliance to ApplianceLoadProfile--><path d="M1158.04,346.25 C1169.64,360.68 1181.67,375.67 1193.08,389.87 " fill="none" id="Appliance-backto-ApplianceLoadProfile" style="stroke:#000000;stroke-width:1.0;"/><polygon fill="none" points="1152.26,350.22,1145.19,330.24,1163.17,341.45,1152.26,350.22" style="stroke:#000000;stroke-width:1.0;"/><!--MD5=[88314b22c02dd598d48c5f9c40071e8f]
reverse link Appliance to ApplianceConstantPower--><path d="M1314.37,336.21 C1374.36,355.19 1439.22,375.71 1498.8,394.56 " fill="none" id="Appliance-backto-ApplianceConstantPower" style="stroke:#000000;stroke-width:1.0;"/><polygon fill="none" points="1312.03,342.81,1295.07,330.11,1316.25,329.47,1312.03,342.81" style="stroke:#000000;stroke-width:1.0;"/><!--MD5=[6dcc30ab473b8b94110a468df6291d15]
reverse link ApplianceWithProfile to TimeSeries--><path codeLine="56" d="M1706,111.99 C1706,147.26 1706,201.5 1706,234.9 " fill="none" id="ApplianceWithProfile-backto-TimeSeries" style="stroke:#000000;stroke-width:1.0;"/><polygon fill="#000000" points="1706,98.59,1702,104.59,1706,110.59,1710,104.59,1706,98.59" style="stroke:#000000;stroke-width:1.0;"/><!--MD5=[639e003bc69b87efc52ad3189a53fd75]
reverse link Household to Appliance--><path codeLine="67" d="M1094,154.42 C1094,169.84 1094,185.88 1094,200.79 " fill="none" id="Household-backto-Appliance" style="stroke:#000000;stroke-width:1.0;"/><polygon fill="#000000" points="1094,141.07,1090,147.07,1094,153.07,1098,147.07,1094,141.07" style="stroke:#000000;stroke-width:1.0;"/><!--MD5=[4a3fab4533bf17bfff20679f0ef005be]
@startuml
!theme plain

enum Season

enum DayType

enum ApplianceType

class SwitchOnProbabilityKey {
    Season: season
    DayType: day_type
    int: quarter_hour_of_day

    + extract_from_datetime(datetime: instance_of_interest): SwitchOnProbabilityKey
}
SwitchOnProbabilityKey *- - DayType
SwitchOnProbabilityKey *- - Season

class SwitchOnProbabilities {
    dict[SwitchOnProbabilityKey, dict[int, float]]: seasonal_probability

    + __init__(): SwitchOnProbabilities
    + get(SwitchOnProbabilityKey key): float

}
note left of SwitchOnProbabilities: "Interface" definition:\nWe receive a "matrix" of probabilities,\nwhich maps from quarter hour of the\nyear to actual switch on probability\n(accounting for so called usage probability)
SwitchOnProbabilities *- - SwitchOnProbabilityKey

abstract class Appliance {
    + ApplianceType: type
    - SwitchOnProbabilities: switch_on_probability

    + __init__(\n\tSwitchOnProbabilities: type_switch_on_probability): Appliance
    + get_switch_on_probability(datetime: instance_of_interest): float
}
note right of Appliance: Implicit assumption:\nGeneration _only_ for one\nwhole year to be calculated
Appliance *- - SwitchOnProbabilities
Appliance *- - ApplianceType

class ApplianceLoadProfile extends Appliance {
    TimeSeries: time_series

    + __init__(\n\tfloat: usage_probability,\n\tSwitchOnProbabilities: type_switch_on_probability,\n\tTimeSeries: time_series\n\t): ApplianceWithProfile
}
note right of TimeSeries: Mapping from quarter hour\nfrom start of operation to\nconsumed power

class ApplianceConstantPower extends Appliance {
    float: p_rated

    + __init__(\n\tfloat: usage_probability,\n\tSwitchOnProbabilities: type_switch_on_probability,\n\tfloat: p_rated\n\t): ApplianceWithProfile
}

class TimeSeries {
    dict[int, float]: values
}
ApplianceWithProfile *- - TimeSeries

class Household {
 dict[Appliance, float]: Appliances

 + __init__()
 + __init__(int: no_of_inhabitants)
 + __init__(float: income)
 + __init__(HouseholdType: household_type)
}
note right of Household: Init without parameter:\nAccording to average household
Household *- - Appliance

enum HouseholdType
@enduml

@startuml







<style>
  root {
    BackgroundColor white
    FontColor black
    FontName Verdana
    HyperLinkColor blue
    LineColor black
    LineThickness 1
    Margin 5
  }
  caption {
    LineThickness 0
  }
  footer {
    LineThickness 0
  }
  header {
    LineThickness 0
  }
  node {
    MaximumWidth 300
  }
  title {
    FontSize 22
    LineThickness 0
  }
</style>

skinparam ArrowLollipopColor black
skinparam BackgroundColor white
skinparam DefaultFontName Verdana
skinparam DefaultMonospacedFontName Courier
skinparam LifelineStrategy nosolid
skinparam ParticipantPadding 10
skinparam SequenceLifeLineBorderColor black
skinparam Shadowing false
skinparam UseBetaStyle true

skinparam Activity {
  BackgroundColor white
  BarColor black
  BorderColor black
  FontColor black
  FontName Verdana
}
skinparam Boundary {
  FontColor black
}
skinparam Box {
  Padding 5
}
skinparam CircledCharacter {
  FontColor black
  FontName Courier
  Radius 9
}
skinparam Class {
  BackgroundColor white
  BorderColor black
  FontColor black
  FontName Verdana
}
skinparam ClassAttribute {
  FontColor black
  FontName Verdana
}
skinparam ClassStereotype {
  FontColor black
  FontName Verdana
}
skinparam Footer {
  FontColor black
  FontName Verdana
}
skinparam Header {
  FontColor black
  FontName Verdana
}
skinparam Hyperlink {
  Color blue
}
skinparam IconPackage {
  Color black
  BackgroundColor white
}
skinparam IconPrivate {
  Color black
  BackgroundColor white
}
skinparam IconProtected {
  Color black
  BackgroundColor white
}
skinparam IconPublic {
  Color black
  BackgroundColor white
}
skinparam Note {
  FontColor black
  FontName Verdana
}
skinparam Object {
  BorderColor black
}
skinparam Package {
  BorderColor black
  FontColor black
  FontName Verdana
}
skinparam State {
  BackgroundColor white
  BorderColor black
}
skinparam StereotypeA {
  BackgroundColor white
  BorderColor black
}
skinparam StereotypeC {
  BackgroundColor white
  BorderColor black
}
skinparam StereotypeE {
  BackgroundColor white
  BorderColor black
}
skinparam StereotypeI {
  BackgroundColor white
  BorderColor black
}
skinparam StereotypeN {
  BackgroundColor white
  BorderColor black
}
skinparam UseCaseStereoType {
  FontColor black
  FontName Verdana
}

enum Season

enum DayType

enum ApplianceType

class SwitchOnProbabilityKey {
    Season: season
    DayType: day_type
    int: quarter_hour_of_day

    + extract_from_datetime(datetime: instance_of_interest): SwitchOnProbabilityKey
}
SwitchOnProbabilityKey *- - DayType
SwitchOnProbabilityKey *- - Season

class SwitchOnProbabilities {
    dict[SwitchOnProbabilityKey, dict[int, float]]: seasonal_probability

    + __init__(): SwitchOnProbabilities
    + get(SwitchOnProbabilityKey key): float

}
note left of SwitchOnProbabilities: "Interface" definition:\nWe receive a "matrix" of probabilities,\nwhich maps from quarter hour of the\nyear to actual switch on probability\n(accounting for so called usage probability)
SwitchOnProbabilities *- - SwitchOnProbabilityKey

abstract class Appliance {
    + ApplianceType: type
    - SwitchOnProbabilities: switch_on_probability

    + __init__(\n\tSwitchOnProbabilities: type_switch_on_probability): Appliance
    + get_switch_on_probability(datetime: instance_of_interest): float
}
note right of Appliance: Implicit assumption:\nGeneration _only_ for one\nwhole year to be calculated
Appliance *- - SwitchOnProbabilities
Appliance *- - ApplianceType

class ApplianceLoadProfile extends Appliance {
    TimeSeries: time_series

    + __init__(\n\tfloat: usage_probability,\n\tSwitchOnProbabilities: type_switch_on_probability,\n\tTimeSeries: time_series\n\t): ApplianceWithProfile
}
note right of TimeSeries: Mapping from quarter hour\nfrom start of operation to\nconsumed power

class ApplianceConstantPower extends Appliance {
    float: p_rated

    + __init__(\n\tfloat: usage_probability,\n\tSwitchOnProbabilities: type_switch_on_probability,\n\tfloat: p_rated\n\t): ApplianceWithProfile
}

class TimeSeries {
    dict[int, float]: values
}
ApplianceWithProfile *- - TimeSeries

class Household {
 dict[Appliance, float]: Appliances

 + __init__()
 + __init__(int: no_of_inhabitants)
 + __init__(float: income)
 + __init__(HouseholdType: household_type)
}
note right of Household: Init without parameter:\nAccording to average household
Household *- - Appliance

enum HouseholdType
@enduml

PlantUML version 1.2022.1(Tue Feb 01 19:19:58 CET 2022)
(GPL source distribution)
Java Runtime: OpenJDK Runtime Environment
JVM: OpenJDK 64-Bit Server VM
Default Encoding: UTF-8
Language: de
Country: DE
--></g></svg>