<?xml version="1.0" encoding="UTF-8" standalone="no"?><svg xmlns="http://www.w3.org/2000/svg" xmlns:xlink="http://www.w3.org/1999/xlink" contentScriptType="application/ecmascript" contentStyleType="text/css" height="265px" preserveAspectRatio="none" style="width:821px;height:265px;background:#FFFFFF;" version="1.1" viewBox="0 0 821 265" width="821px" zoomAndPan="magnify"><defs><filter height="300%" id="fqrnurc2tv6jg" width="300%" x="-1" y="-1"><feGaussianBlur result="blurOut" stdDeviation="2.0"/><feColorMatrix in="blurOut" result="blurOut2" type="matrix" values="0 0 0 0 0 0 0 0 0 0 0 0 0 0 0 0 0 0 .4 0"/><feOffset dx="4.0" dy="4.0" in="blurOut2" result="blurOut3"/><feBlend in="SourceGraphic" in2="blurOut3" mode="normal"/></filter></defs><g><ellipse cx="559" cy="20" fill="#000000" filter="url(#fqrnurc2tv6jg)" rx="10" ry="10" style="stroke:none;stroke-width:1.0;"/><rect fill="#FEFECE" filter="url(#fqrnurc2tv6jg)" height="34.1328" rx="12.5" ry="12.5" style="stroke:#A80036;stroke-width:1.5;" width="136" x="491" y="50"/><text fill="#000000" font-family="sans-serif" font-size="12" lengthAdjust="spacing" textLength="116" x="501" y="71.6016">initialize households</text><path d="M10,107.9551 L10,148.5762 A0,0 0 0 0 10,148.5762 L294,148.5762 A0,0 0 0 0 294,148.5762 L294,132.2656 L314,128.2656 L294,124.2656 L294,117.9551 L284,107.9551 L10,107.9551 A0,0 0 0 0 10,107.9551 " fill="#FBFB77" filter="url(#fqrnurc2tv6jg)" style="stroke:#A80036;stroke-width:1.0;"/><path d="M284,107.9551 L284,117.9551 L294,117.9551 L284,107.9551 " fill="#FBFB77" style="stroke:#A80036;stroke-width:1.0;"/><text fill="#000000" font-family="sans-serif" font-size="13" lengthAdjust="spacing" textLength="259" x="16" y="125.5234">number of devices in the different stages</text><text fill="#000000" font-family="sans-serif" font-size="13" lengthAdjust="spacing" textLength="246" x="20" y="140.834">initially all appliances are off (build up)</text><rect fill="#FEFECE" filter="url(#fqrnurc2tv6jg)" height="48.2656" rx="12.5" ry="12.5" style="stroke:#A80036;stroke-width:1.5;" width="490" x="314" y="104.1328"/><text fill="#000000" font-family="sans-serif" font-size="12" lengthAdjust="spacing" textLength="147" x="324" y="125.7344">current_time = start_time</text><text fill="#000000" font-family="sans-serif" font-size="12" lengthAdjust="spacing" textLength="470" x="324" y="139.8672">appliance_state_distribution = initial_appliance_state_distribution * nr_appliances</text><path d="M437,176.8096 L437,202.1201 A0,0 0 0 0 437,202.1201 L462,202.1201 A0,0 0 0 0 462,202.1201 L462,194.8096 L482,189.4648 L462,186.8096 L462,186.8096 L452,176.8096 L437,176.8096 A0,0 0 0 0 437,176.8096 " fill="#FBFB77" filter="url(#fqrnurc2tv6jg)" style="stroke:#A80036;stroke-width:1.0;"/><path d="M452,176.8096 L452,186.8096 L462,186.8096 L452,176.8096 " fill="#FBFB77" style="stroke:#A80036;stroke-width:1.0;"/><text fill="#000000" font-family="sans-serif" font-size="13" lengthAdjust="spacing" textLength="0" x="447" y="194.3779"/><rect fill="#FEFECE" filter="url(#fqrnurc2tv6jg)" height="34.1328" rx="12.5" ry="12.5" style="stroke:#A80036;stroke-width:1.5;" width="154" x="482" y="172.3984"/><text fill="#000000" font-family="sans-serif" font-size="12" lengthAdjust="spacing" textLength="134" x="492" y="194">assign transition matrix</text><ellipse cx="559" cy="237.5313" fill="#FFFFFF" filter="url(#fqrnurc2tv6jg)" rx="11" ry="11" style="stroke:#000000;stroke-width:1.0;"/><ellipse cx="559" cy="237.5313" fill="#000000" rx="6" ry="6" style="stroke:#7F7F7F;stroke-width:1.0;"/><line style="stroke:#A80036;stroke-width:1.5;" x1="559" x2="559" y1="30" y2="50"/><polygon fill="#A80036" points="555,40,559,50,563,40,559,44" style="stroke:#A80036;stroke-width:1.0;"/><line style="stroke:#A80036;stroke-width:1.5;" x1="559" x2="559" y1="84.1328" y2="104.1328"/><polygon fill="#A80036" points="555,94.1328,559,104.1328,563,94.1328,559,98.1328" style="stroke:#A80036;stroke-width:1.0;"/><line style="stroke:#A80036;stroke-width:1.5;" x1="559" x2="559" y1="152.3984" y2="172.3984"/><polygon fill="#A80036" points="555,162.3984,559,172.3984,563,162.3984,559,166.3984" style="stroke:#A80036;stroke-width:1.0;"/><line style="stroke:#A80036;stroke-width:1.5;" x1="559" x2="559" y1="206.5313" y2="226.5313"/><polygon fill="#A80036" points="555,216.5313,559,226.5313,563,216.5313,559,220.5313" style="stroke:#A80036;stroke-width:1.0;"/><!--MD5=[fc3542baebe9f396de4c707928291692]
@startuml
'https://plantuml.com/activity-diagram-beta

start
:initialize households;
:current_time = start_time
appliance_state_distribution = initial_appliance_state_distribution * nr_appliances;
note left: number of devices in the different stages \n initially all appliances are off (build up)
:assign transition matrix;
note left:

stop

@enduml

@startuml

start
:initialize households;
:current_time = start_time
appliance_state_distribution = initial_appliance_state_distribution * nr_appliances;
note left: number of devices in the different stages \n initially all appliances are off (build up)
:assign transition matrix;
note left:

stop

@enduml

PlantUML version 1.2022.1(Tue Feb 01 19:19:58 CET 2022)
(GPL source distribution)
Java Runtime: OpenJDK Runtime Environment
JVM: OpenJDK 64-Bit Server VM
Default Encoding: UTF-8
Language: de
Country: DE
--></g></svg>