<?xml version="1.0" encoding="UTF-8" standalone="no"?><svg xmlns="http://www.w3.org/2000/svg" xmlns:xlink="http://www.w3.org/1999/xlink" contentScriptType="application/ecmascript" contentStyleType="text/css" height="535px" preserveAspectRatio="none" style="width:289px;height:535px;background:#FFFFFF;" version="1.1" viewBox="0 0 289 535" width="289px" zoomAndPan="magnify"><defs><filter height="300%" id="f18ejby6rn8eng" width="300%" x="-1" y="-1"><feGaussianBlur result="blurOut" stdDeviation="2.0"/><feColorMatrix in="blurOut" result="blurOut2" type="matrix" values="0 0 0 0 0 0 0 0 0 0 0 0 0 0 0 0 0 0 .4 0"/><feOffset dx="4.0" dy="4.0" in="blurOut2" result="blurOut3"/><feBlend in="SourceGraphic" in2="blurOut3" mode="normal"/></filter></defs><g><ellipse cx="136.5" cy="20" fill="#000000" filter="url(#f18ejby6rn8eng)" rx="10" ry="10" style="stroke:none;stroke-width:1.0;"/><rect fill="#FEFECE" filter="url(#f18ejby6rn8eng)" height="34.1328" rx="12.5" ry="12.5" style="stroke:#A80036;stroke-width:1.5;" width="153" x="60" y="50"/><text fill="#000000" font-family="sans-serif" font-size="12" lengthAdjust="spacing" textLength="133" x="70" y="71.6016">house_hold_power = 0</text><rect fill="#FEFECE" filter="url(#f18ejby6rn8eng)" height="34.1328" rx="12.5" ry="12.5" style="stroke:#A80036;stroke-width:1.5;" width="105" x="84" y="148.1328"/><text fill="#000000" font-family="sans-serif" font-size="12" lengthAdjust="spacing" textLength="85" x="94" y="169.7344">next appliance</text><polygon fill="#FEFECE" filter="url(#f18ejby6rn8eng)" points="80.5,222.2656,192.5,222.2656,204.5,234.2656,192.5,246.2656,80.5,246.2656,68.5,234.2656,80.5,222.2656" style="stroke:#A80036;stroke-width:1.5;"/><text fill="#000000" font-family="sans-serif" font-size="11" lengthAdjust="spacing" textLength="18" x="140.5" y="256.9004">yes</text><text fill="#000000" font-family="sans-serif" font-size="11" lengthAdjust="spacing" textLength="112" x="80.5" y="238.4229">appliance turned on?</text><text fill="#000000" font-family="sans-serif" font-size="11" lengthAdjust="spacing" textLength="14" x="204.5" y="231.9453">no</text><rect fill="#FEFECE" filter="url(#f18ejby6rn8eng)" height="34.1328" rx="12.5" ry="12.5" style="stroke:#A80036;stroke-width:1.5;" width="229" x="22" y="278.4004"/><text fill="#000000" font-family="sans-serif" font-size="12" lengthAdjust="spacing" textLength="209" x="32" y="300.002">get power consumption p_appliance</text><rect fill="#FEFECE" filter="url(#f18ejby6rn8eng)" height="34.1328" rx="12.5" ry="12.5" style="stroke:#A80036;stroke-width:1.5;" width="225" x="24" y="332.5332"/><text fill="#000000" font-family="sans-serif" font-size="12" lengthAdjust="spacing" textLength="205" x="34" y="354.1348">house_hold_power += p_appliance</text><polygon fill="#FEFECE" filter="url(#f18ejby6rn8eng)" points="136.5,104.1328,148.5,116.1328,136.5,128.1328,124.5,116.1328,136.5,104.1328" style="stroke:#A80036;stroke-width:1.5;"/><polygon fill="#FEFECE" filter="url(#f18ejby6rn8eng)" points="74.5,386.666,198.5,386.666,210.5,398.666,198.5,410.666,74.5,410.666,62.5,398.666,74.5,386.666" style="stroke:#A80036;stroke-width:1.5;"/><text fill="#000000" font-family="sans-serif" font-size="11" lengthAdjust="spacing" textLength="18" x="140.5" y="421.3008">yes</text><text fill="#000000" font-family="sans-serif" font-size="11" lengthAdjust="spacing" textLength="124" x="74.5" y="402.8232">all appliances checked?</text><text fill="#000000" font-family="sans-serif" font-size="11" lengthAdjust="spacing" textLength="14" x="210.5" y="396.3457">no</text><rect fill="#FEFECE" filter="url(#f18ejby6rn8eng)" height="34.1328" rx="12.5" ry="12.5" style="stroke:#A80036;stroke-width:1.5;" width="251" x="11" y="442.8008"/><text fill="#000000" font-family="sans-serif" font-size="12" lengthAdjust="spacing" textLength="231" x="21" y="464.4023">aggregated power = house_hold_power</text><ellipse cx="136.5" cy="507.9336" fill="#FFFFFF" filter="url(#f18ejby6rn8eng)" rx="11" ry="11" style="stroke:#000000;stroke-width:1.0;"/><ellipse cx="136.5" cy="507.9336" fill="#000000" rx="6" ry="6" style="stroke:#7F7F7F;stroke-width:1.0;"/><line style="stroke:#A80036;stroke-width:1.5;" x1="136.5" x2="136.5" y1="30" y2="50"/><polygon fill="#A80036" points="132.5,40,136.5,50,140.5,40,136.5,44" style="stroke:#A80036;stroke-width:1.0;"/><line style="stroke:#A80036;stroke-width:1.5;" x1="136.5" x2="136.5" y1="182.2656" y2="222.2656"/><polygon fill="#A80036" points="132.5,212.2656,136.5,222.2656,140.5,212.2656,136.5,216.2656" style="stroke:#A80036;stroke-width:1.0;"/><line style="stroke:#A80036;stroke-width:1.5;" x1="204.5" x2="216.5" y1="234.2656" y2="234.2656"/><polygon fill="#A80036" points="212.5,202.2656,216.5,192.2656,220.5,202.2656,216.5,198.2656" style="stroke:#A80036;stroke-width:1.5;"/><line style="stroke:#A80036;stroke-width:1.5;" x1="216.5" x2="216.5" y1="165.1992" y2="234.2656"/><line style="stroke:#A80036;stroke-width:1.5;" x1="216.5" x2="189" y1="165.1992" y2="165.1992"/><polygon fill="#A80036" points="199,161.1992,189,165.1992,199,169.1992,195,165.1992" style="stroke:#A80036;stroke-width:1.0;"/><line style="stroke:#A80036;stroke-width:1.5;" x1="136.5" x2="136.5" y1="246.2656" y2="278.4004"/><polygon fill="#A80036" points="132.5,268.4004,136.5,278.4004,140.5,268.4004,136.5,272.4004" style="stroke:#A80036;stroke-width:1.0;"/><line style="stroke:#A80036;stroke-width:1.5;" x1="136.5" x2="136.5" y1="312.5332" y2="332.5332"/><polygon fill="#A80036" points="132.5,322.5332,136.5,332.5332,140.5,322.5332,136.5,326.5332" style="stroke:#A80036;stroke-width:1.0;"/><line style="stroke:#A80036;stroke-width:1.5;" x1="136.5" x2="136.5" y1="128.1328" y2="148.1328"/><polygon fill="#A80036" points="132.5,138.1328,136.5,148.1328,140.5,138.1328,136.5,142.1328" style="stroke:#A80036;stroke-width:1.0;"/><line style="stroke:#A80036;stroke-width:1.5;" x1="210.5" x2="263" y1="398.666" y2="398.666"/><polygon fill="#A80036" points="259,248.332,263,238.332,267,248.332,263,244.332" style="stroke:#A80036;stroke-width:1.5;"/><line style="stroke:#A80036;stroke-width:1.5;" x1="263" x2="263" y1="116.1328" y2="398.666"/><line style="stroke:#A80036;stroke-width:1.5;" x1="263" x2="148.5" y1="116.1328" y2="116.1328"/><polygon fill="#A80036" points="158.5,112.1328,148.5,116.1328,158.5,120.1328,154.5,116.1328" style="stroke:#A80036;stroke-width:1.0;"/><line style="stroke:#A80036;stroke-width:1.5;" x1="136.5" x2="136.5" y1="366.666" y2="386.666"/><polygon fill="#A80036" points="132.5,376.666,136.5,386.666,140.5,376.666,136.5,380.666" style="stroke:#A80036;stroke-width:1.0;"/><line style="stroke:#A80036;stroke-width:1.5;" x1="136.5" x2="136.5" y1="84.1328" y2="104.1328"/><polygon fill="#A80036" points="132.5,94.1328,136.5,104.1328,140.5,94.1328,136.5,98.1328" style="stroke:#A80036;stroke-width:1.0;"/><line style="stroke:#A80036;stroke-width:1.5;" x1="136.5" x2="136.5" y1="410.666" y2="442.8008"/><polygon fill="#A80036" points="132.5,432.8008,136.5,442.8008,140.5,432.8008,136.5,436.8008" style="stroke:#A80036;stroke-width:1.0;"/><line style="stroke:#A80036;stroke-width:1.5;" x1="136.5" x2="136.5" y1="476.9336" y2="496.9336"/><polygon fill="#A80036" points="132.5,486.9336,136.5,496.9336,140.5,486.9336,136.5,490.9336" style="stroke:#A80036;stroke-width:1.0;"/><!--MD5=[1c0cf48cef1b03176e80706498c0e8e2]
@startuml

start
:house_hold_power = 0;
repeat
repeat :next appliance;
repeat while (appliance turned on?) is (no) not (yes)
  :get power consumption p_appliance;
  :house_hold_power += p_appliance;
repeat while (all appliances checked?) is (no) not (yes)
:aggregated power = house_hold_power;

stop

@endum

PlantUML version 1.2022.1(Tue Feb 01 19:19:58 CET 2022)
(GPL source distribution)
Java Runtime: OpenJDK Runtime Environment
JVM: OpenJDK 64-Bit Server VM
Default Encoding: UTF-8
Language: de
Country: DE
--></g></svg>