<?xml version="1.0" encoding="UTF-8" standalone="no"?><svg xmlns="http://www.w3.org/2000/svg" xmlns:xlink="http://www.w3.org/1999/xlink" contentScriptType="application/ecmascript" contentStyleType="text/css" height="798px" preserveAspectRatio="none" style="width:468px;height:798px;background:#FFFFFF;" version="1.1" viewBox="0 0 468 798" width="468px" zoomAndPan="magnify"><defs><filter height="300%" id="f1pg1vff8wlg20" width="300%" x="-1" y="-1"><feGaussianBlur result="blurOut" stdDeviation="2.0"/><feColorMatrix in="blurOut" result="blurOut2" type="matrix" values="0 0 0 0 0 0 0 0 0 0 0 0 0 0 0 0 0 0 .4 0"/><feOffset dx="4.0" dy="4.0" in="blurOut2" result="blurOut3"/><feBlend in="SourceGraphic" in2="blurOut3" mode="normal"/></filter></defs><g><ellipse cx="225" cy="20" fill="#000000" filter="url(#f1pg1vff8wlg20)" rx="10" ry="10" style="stroke:none;stroke-width:1.0;"/><rect fill="#FEFECE" filter="url(#f1pg1vff8wlg20)" height="34.1328" rx="12.5" ry="12.5" style="stroke:#A80036;stroke-width:1.5;" width="140" x="155" y="50"/><text fill="#000000" font-family="sans-serif" font-size="12" lengthAdjust="spacing" textLength="120" x="165" y="71.6016">Read in probabilities</text><polygon fill="#FEFECE" filter="url(#f1pg1vff8wlg20)" points="135.5,104.1328,314.5,104.1328,326.5,116.1328,314.5,128.1328,135.5,128.1328,123.5,116.1328,135.5,104.1328" style="stroke:#A80036;stroke-width:1.5;"/><text fill="#000000" font-family="sans-serif" font-size="11" lengthAdjust="spacing" textLength="179" x="135.5" y="120.29">Calculate transition probabilities?</text><text fill="#000000" font-family="sans-serif" font-size="11" lengthAdjust="spacing" textLength="18" x="105.5" y="113.8125">yes</text><text fill="#000000" font-family="sans-serif" font-size="11" lengthAdjust="spacing" textLength="14" x="326.5" y="113.8125">no</text><rect fill="#FEFECE" filter="url(#f1pg1vff8wlg20)" height="34.1328" rx="12.5" ry="12.5" style="stroke:#A80036;stroke-width:1.5;" width="205" x="11" y="138.1328"/><text fill="#000000" font-family="sans-serif" font-size="12" lengthAdjust="spacing" textLength="185" x="21" y="159.7344">Calculate transition probabilities</text><rect fill="#FEFECE" filter="url(#f1pg1vff8wlg20)" height="34.1328" rx="12.5" ry="12.5" style="stroke:#A80036;stroke-width:1.5;" width="88" x="69.5" y="240.7432"/><text fill="#000000" font-family="sans-serif" font-size="12" lengthAdjust="spacing" textLength="68" x="79.5" y="262.3447">Save results</text><polygon fill="#FEFECE" filter="url(#f1pg1vff8wlg20)" points="79,192.2656,148,192.2656,160,204.2656,148,216.2656,79,216.2656,67,204.2656,79,192.2656" style="stroke:#A80036;stroke-width:1.5;"/><text fill="#000000" font-family="sans-serif" font-size="11" lengthAdjust="spacing" textLength="18" x="117.5" y="226.9004">yes</text><text fill="#000000" font-family="sans-serif" font-size="11" lengthAdjust="spacing" textLength="69" x="79" y="208.4229">Save results?</text><text fill="#000000" font-family="sans-serif" font-size="11" lengthAdjust="spacing" textLength="14" x="160" y="201.9453">no</text><polygon fill="#FEFECE" filter="url(#f1pg1vff8wlg20)" points="113.5,294.876,125.5,306.876,113.5,318.876,101.5,306.876,113.5,294.876" style="stroke:#A80036;stroke-width:1.5;"/><rect fill="#FEFECE" filter="url(#f1pg1vff8wlg20)" height="34.1328" rx="12.5" ry="12.5" style="stroke:#A80036;stroke-width:1.5;" width="181" x="246" y="138.1328"/><text fill="#000000" font-family="sans-serif" font-size="12" lengthAdjust="spacing" textLength="161" x="256" y="159.7344">Load transition probabilities</text><polygon fill="#FEFECE" filter="url(#f1pg1vff8wlg20)" points="225,324.876,237,336.876,225,348.876,213,336.876,225,324.876" style="stroke:#A80036;stroke-width:1.5;"/><rect fill="#FEFECE" filter="url(#f1pg1vff8wlg20)" height="34.1328" rx="12.5" ry="12.5" style="stroke:#A80036;stroke-width:1.5;" width="155" x="147.5" y="368.876"/><text fill="#000000" font-family="sans-serif" font-size="12" lengthAdjust="spacing" textLength="135" x="157.5" y="390.4775">Determine Point in time</text><polygon fill="#FEFECE" filter="url(#f1pg1vff8wlg20)" points="178,423.0088,272,423.0088,284,435.0088,272,447.0088,178,447.0088,166,435.0088,178,423.0088" style="stroke:#A80036;stroke-width:1.5;"/><text fill="#000000" font-family="sans-serif" font-size="11" lengthAdjust="spacing" textLength="94" x="178" y="439.166">Simulation mode?</text><text fill="#000000" font-family="sans-serif" font-size="11" lengthAdjust="spacing" textLength="65" x="101" y="432.6885">Monte Carlo</text><text fill="#000000" font-family="sans-serif" font-size="11" lengthAdjust="spacing" textLength="111" x="284" y="432.6885">Analytical Simulation</text><rect fill="#FFFFFF" filter="url(#f1pg1vff8wlg20)" height="197.8867" style="stroke:#000000;stroke-width:2.0;" width="108" x="71" y="457.0088"/><path d="M111,457.0088 L111,466.4971 L101,476.4971 L71,476.4971 " fill="none" style="stroke:#000000;stroke-width:2.0;"/><text fill="#000000" font-family="sans-serif" font-size="14" lengthAdjust="spacing" textLength="30" x="74" y="471.5439">MCS</text><rect fill="#FEFECE" filter="url(#f1pg1vff8wlg20)" height="34.1328" rx="12.5" ry="12.5" style="stroke:#A80036;stroke-width:1.5;" width="88" x="81" y="493.4971"/><text fill="#000000" font-family="sans-serif" font-size="12" lengthAdjust="spacing" textLength="68" x="91" y="515.0986">Initialization</text><rect fill="#FEFECE" filter="url(#f1pg1vff8wlg20)" height="34.1328" rx="12.5" ry="12.5" style="stroke:#A80036;stroke-width:1.5;" width="87" x="81.5" y="554.6299"/><text fill="#000000" font-family="sans-serif" font-size="12" lengthAdjust="spacing" textLength="67" x="91.5" y="576.2314">Preparation</text><rect fill="#FEFECE" filter="url(#f1pg1vff8wlg20)" height="34.1328" rx="12.5" ry="12.5" style="stroke:#A80036;stroke-width:1.5;" width="78" x="86" y="608.7627"/><text fill="#000000" font-family="sans-serif" font-size="12" lengthAdjust="spacing" textLength="58" x="96" y="630.3643">Simulation</text><rect fill="#FFFFFF" filter="url(#f1pg1vff8wlg20)" height="82.6211" style="stroke:#000000;stroke-width:2.0;" width="252" x="199" y="457.0088"/><path d="M348,457.0088 L348,466.4971 L338,476.4971 L199,476.4971 " fill="none" style="stroke:#000000;stroke-width:2.0;"/><text fill="#000000" font-family="sans-serif" font-size="14" lengthAdjust="spacing" textLength="139" x="202" y="471.5439">AnalyticalSimulation</text><rect fill="#FEFECE" filter="url(#f1pg1vff8wlg20)" height="34.1328" rx="12.5" ry="12.5" style="stroke:#A80036;stroke-width:1.5;" width="232" x="209" y="493.4971"/><text fill="#000000" font-family="sans-serif" font-size="12" lengthAdjust="spacing" textLength="212" x="219" y="515.0986">Calculate with transition probabilities</text><polygon fill="#FEFECE" filter="url(#f1pg1vff8wlg20)" points="225,660.8955,237,672.8955,225,684.8955,213,672.8955,225,660.8955" style="stroke:#A80036;stroke-width:1.5;"/><rect fill="#FEFECE" filter="url(#f1pg1vff8wlg20)" height="34.1328" rx="12.5" ry="12.5" style="stroke:#A80036;stroke-width:1.5;" width="88" x="181" y="704.8955"/><text fill="#000000" font-family="sans-serif" font-size="12" lengthAdjust="spacing" textLength="68" x="191" y="726.4971">Save results</text><ellipse cx="225" cy="770.0283" fill="#FFFFFF" filter="url(#f1pg1vff8wlg20)" rx="11" ry="11" style="stroke:#000000;stroke-width:1.0;"/><ellipse cx="225" cy="770.0283" fill="#000000" rx="6" ry="6" style="stroke:#7F7F7F;stroke-width:1.0;"/><line style="stroke:#A80036;stroke-width:1.5;" x1="225" x2="225" y1="30" y2="50"/><polygon fill="#A80036" points="221,40,225,50,229,40,225,44" style="stroke:#A80036;stroke-width:1.0;"/><line style="stroke:#A80036;stroke-width:1.5;" x1="113.5" x2="113.5" y1="216.2656" y2="240.7432"/><polygon fill="#A80036" points="109.5,230.7432,113.5,240.7432,117.5,230.7432,113.5,234.7432" style="stroke:#A80036;stroke-width:1.0;"/><line style="stroke:#A80036;stroke-width:1.5;" x1="160" x2="172" y1="204.2656" y2="204.2656"/><polygon fill="#A80036" points="168,247.8096,172,257.8096,176,247.8096,172,251.8096" style="stroke:#A80036;stroke-width:1.5;"/><line style="stroke:#A80036;stroke-width:1.5;" x1="172" x2="172" y1="204.2656" y2="306.876"/><line style="stroke:#A80036;stroke-width:1.5;" x1="172" x2="125.5" y1="306.876" y2="306.876"/><polygon fill="#A80036" points="135.5,302.876,125.5,306.876,135.5,310.876,131.5,306.876" style="stroke:#A80036;stroke-width:1.0;"/><line style="stroke:#A80036;stroke-width:1.5;" x1="113.5" x2="113.5" y1="274.876" y2="294.876"/><polygon fill="#A80036" points="109.5,284.876,113.5,294.876,117.5,284.876,113.5,288.876" style="stroke:#A80036;stroke-width:1.0;"/><line style="stroke:#A80036;stroke-width:1.5;" x1="113.5" x2="113.5" y1="172.2656" y2="192.2656"/><polygon fill="#A80036" points="109.5,182.2656,113.5,192.2656,117.5,182.2656,113.5,186.2656" style="stroke:#A80036;stroke-width:1.0;"/><line style="stroke:#A80036;stroke-width:1.5;" x1="123.5" x2="113.5" y1="116.1328" y2="116.1328"/><line style="stroke:#A80036;stroke-width:1.5;" x1="113.5" x2="113.5" y1="116.1328" y2="138.1328"/><polygon fill="#A80036" points="109.5,128.1328,113.5,138.1328,117.5,128.1328,113.5,132.1328" style="stroke:#A80036;stroke-width:1.0;"/><line style="stroke:#A80036;stroke-width:1.5;" x1="326.5" x2="336.5" y1="116.1328" y2="116.1328"/><line style="stroke:#A80036;stroke-width:1.5;" x1="336.5" x2="336.5" y1="116.1328" y2="138.1328"/><polygon fill="#A80036" points="332.5,128.1328,336.5,138.1328,340.5,128.1328,336.5,132.1328" style="stroke:#A80036;stroke-width:1.0;"/><line style="stroke:#A80036;stroke-width:1.5;" x1="113.5" x2="113.5" y1="318.876" y2="336.876"/><line style="stroke:#A80036;stroke-width:1.5;" x1="113.5" x2="213" y1="336.876" y2="336.876"/><polygon fill="#A80036" points="203,332.876,213,336.876,203,340.876,207,336.876" style="stroke:#A80036;stroke-width:1.0;"/><line style="stroke:#A80036;stroke-width:1.5;" x1="336.5" x2="336.5" y1="172.2656" y2="336.876"/><line style="stroke:#A80036;stroke-width:1.5;" x1="336.5" x2="237" y1="336.876" y2="336.876"/><polygon fill="#A80036" points="247,332.876,237,336.876,247,340.876,243,336.876" style="stroke:#A80036;stroke-width:1.0;"/><line style="stroke:#A80036;stroke-width:1.5;" x1="225" x2="225" y1="84.1328" y2="104.1328"/><polygon fill="#A80036" points="221,94.1328,225,104.1328,229,94.1328,225,98.1328" style="stroke:#A80036;stroke-width:1.0;"/><line style="stroke:#A80036;stroke-width:1.5;" x1="225" x2="225" y1="348.876" y2="368.876"/><polygon fill="#A80036" points="221,358.876,225,368.876,229,358.876,225,362.876" style="stroke:#A80036;stroke-width:1.0;"/><line style="stroke:#A80036;stroke-width:1.5;" x1="125" x2="125" y1="527.6299" y2="554.6299"/><polygon fill="#A80036" points="121,544.6299,125,554.6299,129,544.6299,125,548.6299" style="stroke:#A80036;stroke-width:1.0;"/><line style="stroke:#A80036;stroke-width:1.5;" x1="125" x2="125" y1="588.7627" y2="608.7627"/><polygon fill="#A80036" points="121,598.7627,125,608.7627,129,598.7627,125,602.7627" style="stroke:#A80036;stroke-width:1.0;"/><line style="stroke:#A80036;stroke-width:1.5;" x1="166" x2="125" y1="435.0088" y2="435.0088"/><line style="stroke:#A80036;stroke-width:1.5;" x1="125" x2="125" y1="435.0088" y2="493.4971"/><polygon fill="#A80036" points="121,483.4971,125,493.4971,129,483.4971,125,487.4971" style="stroke:#A80036;stroke-width:1.0;"/><line style="stroke:#A80036;stroke-width:1.5;" x1="284" x2="325" y1="435.0088" y2="435.0088"/><line style="stroke:#A80036;stroke-width:1.5;" x1="325" x2="325" y1="435.0088" y2="493.4971"/><polygon fill="#A80036" points="321,483.4971,325,493.4971,329,483.4971,325,487.4971" style="stroke:#A80036;stroke-width:1.0;"/><line style="stroke:#A80036;stroke-width:1.5;" x1="125" x2="125" y1="642.8955" y2="672.8955"/><line style="stroke:#A80036;stroke-width:1.5;" x1="125" x2="213" y1="672.8955" y2="672.8955"/><polygon fill="#A80036" points="203,668.8955,213,672.8955,203,676.8955,207,672.8955" style="stroke:#A80036;stroke-width:1.0;"/><line style="stroke:#A80036;stroke-width:1.5;" x1="325" x2="325" y1="527.6299" y2="672.8955"/><line style="stroke:#A80036;stroke-width:1.5;" x1="325" x2="237" y1="672.8955" y2="672.8955"/><polygon fill="#A80036" points="247,668.8955,237,672.8955,247,676.8955,243,672.8955" style="stroke:#A80036;stroke-width:1.0;"/><line style="stroke:#A80036;stroke-width:1.5;" x1="225" x2="225" y1="403.0088" y2="423.0088"/><polygon fill="#A80036" points="221,413.0088,225,423.0088,229,413.0088,225,417.0088" style="stroke:#A80036;stroke-width:1.0;"/><line style="stroke:#A80036;stroke-width:1.5;" x1="225" x2="225" y1="684.8955" y2="704.8955"/><polygon fill="#A80036" points="221,694.8955,225,704.8955,229,694.8955,225,698.8955" style="stroke:#A80036;stroke-width:1.0;"/><line style="stroke:#A80036;stroke-width:1.5;" x1="225" x2="225" y1="739.0283" y2="759.0283"/><polygon fill="#A80036" points="221,749.0283,225,759.0283,229,749.0283,225,753.0283" style="stroke:#A80036;stroke-width:1.0;"/><!--MD5=[ada079e1fbee7533b34510ead1ad846f]
@startuml
start
:Read in probabilities;
if(Calculate transition probabilities?) then(yes)
    :Calculate transition probabilities;
if(Save results?) then(yes)
    :Save results;
else(no)
endif;
else(no)
    :Load transition probabilities;
endif;
:Determine Point in time;
if(Simulation mode?) then(Monte Carlo)
partition MCS {
:Initialization;
:Preparation;
:Simulation;
}
else (Analytical Simulation)
partition AnalyticalSimulation {
:Calculate with transition probabilities;
}
endif;
:Save results;
stop
@enduml

PlantUML version 1.2022.1(Tue Feb 01 19:19:58 CET 2022)
(GPL source distribution)
Java Runtime: OpenJDK Runtime Environment
JVM: OpenJDK 64-Bit Server VM
Default Encoding: UTF-8
Language: de
Country: DE
--></g></svg>